# MagicaVoxel @ Ephtracy

# group
g icebox

# material
mtllib icebox.mtl
usemtl palette

# normals
vn -1 0 0
vn 1 0 0
vn 0 0 1
vn 0 0 -1
vn 0 -1 0
vn 0 1 0

# texcoords
vt 0.986328 0.5
vt 0.994141 0.5

# verts
v -20 3 20
v -20 3 -18
v -20 4 19
v -20 4 -17
v -20 36 19
v -20 36 -17
v -20 37 20
v -20 37 -18
v -19 2 20
v -19 2 19
v -19 2 -17
v -19 2 -18
v -19 3 20
v -19 3 19
v -19 3 -17
v -19 3 -18
v -19 37 20
v -19 37 19
v -19 37 -17
v -19 37 -18
v -19 38 20
v -19 38 19
v -19 38 -17
v -19 38 -18
v -18 1 20
v -18 1 19
v -18 1 -17
v -18 1 -18
v -18 2 20
v -18 2 19
v -18 2 -17
v -18 2 -18
v -18 38 20
v -18 38 19
v -18 38 -17
v -18 38 -18
v -18 39 20
v -18 39 19
v -18 39 -17
v -18 39 -18
v -17 0 20
v -17 0 -18
v -17 1 20
v -17 1 19
v -17 1 -17
v -17 1 -18
v -17 39 20
v -17 39 19
v -17 39 -17
v -17 39 -18
v -17 40 20
v -17 40 -18
v 17 0 20
v 17 0 -18
v 17 1 20
v 17 1 19
v 17 1 -17
v 17 1 -18
v 17 39 20
v 17 39 19
v 17 39 -17
v 17 39 -18
v 17 40 20
v 17 40 -18
v 18 1 20
v 18 1 19
v 18 1 -17
v 18 1 -18
v 18 2 20
v 18 2 19
v 18 2 -17
v 18 2 -18
v 18 38 20
v 18 38 19
v 18 38 -17
v 18 38 -18
v 18 39 20
v 18 39 19
v 18 39 -17
v 18 39 -18
v 19 2 20
v 19 2 19
v 19 2 -17
v 19 2 -18
v 19 3 20
v 19 3 19
v 19 3 -17
v 19 3 -18
v 19 37 20
v 19 37 19
v 19 37 -17
v 19 37 -18
v 19 38 20
v 19 38 19
v 19 38 -17
v 19 38 -18
v 20 3 20
v 20 3 -18
v 20 4 19
v 20 4 -17
v 20 36 19
v 20 36 -17
v 20 37 20
v 20 37 -18
v -20 3 20
v -20 37 20
v -19 2 20
v -19 3 20
v -19 37 20
v -19 38 20
v -18 1 20
v -18 2 20
v -18 3 20
v -18 37 20
v -18 38 20
v -18 39 20
v -17 0 20
v -17 1 20
v -17 2 20
v -17 38 20
v -17 39 20
v -17 40 20
v -10 11 20
v -10 12 20
v -9 11 20
v -9 12 20
v -9 13 20
v -8 12 20
v -8 13 20
v -8 14 20
v -7 13 20
v -7 14 20
v -7 15 20
v -6 14 20
v -6 15 20
v -6 16 20
v -5 15 20
v -5 16 20
v -5 17 20
v -4 16 20
v -4 17 20
v -4 18 20
v -3 17 20
v -3 18 20
v -3 19 20
v -2 18 20
v -2 19 20
v -2 20 20
v -1 14 20
v -1 15 20
v -1 19 20
v -1 20 20
v -1 21 20
v 0 14 20
v 0 15 20
v 0 16 20
v 0 20 20
v 0 21 20
v 0 22 20
v 1 15 20
v 1 16 20
v 1 17 20
v 1 21 20
v 1 22 20
v 1 23 20
v 2 16 20
v 2 17 20
v 2 18 20
v 2 22 20
v 2 23 20
v 2 24 20
v 3 17 20
v 3 18 20
v 3 23 20
v 3 24 20
v 3 25 20
v 4 24 20
v 4 25 20
v 4 26 20
v 5 25 20
v 5 26 20
v 5 27 20
v 6 26 20
v 6 27 20
v 6 28 20
v 7 27 20
v 7 28 20
v 17 0 20
v 17 1 20
v 17 2 20
v 17 38 20
v 17 39 20
v 17 40 20
v 18 1 20
v 18 2 20
v 18 3 20
v 18 37 20
v 18 38 20
v 18 39 20
v 19 2 20
v 19 3 20
v 19 37 20
v 19 38 20
v 20 3 20
v 20 37 20
v -20 3 -18
v -20 37 -18
v -19 2 -18
v -19 3 -18
v -19 37 -18
v -19 38 -18
v -18 1 -18
v -18 2 -18
v -18 3 -18
v -18 37 -18
v -18 38 -18
v -18 39 -18
v -17 0 -18
v -17 1 -18
v -17 2 -18
v -17 38 -18
v -17 39 -18
v -17 40 -18
v -4 19 -18
v -4 20 -18
v -4 27 -18
v -4 28 -18
v -3 18 -18
v -3 19 -18
v -3 20 -18
v -3 26 -18
v -3 27 -18
v -3 28 -18
v -2 17 -18
v -2 18 -18
v -2 19 -18
v -2 25 -18
v -2 26 -18
v -2 27 -18
v -1 16 -18
v -1 17 -18
v -1 18 -18
v -1 24 -18
v -1 25 -18
v -1 26 -18
v 0 15 -18
v 0 16 -18
v 0 17 -18
v 0 23 -18
v 0 24 -18
v 0 25 -18
v 1 14 -18
v 1 15 -18
v 1 16 -18
v 1 22 -18
v 1 23 -18
v 1 24 -18
v 2 14 -18
v 2 15 -18
v 2 21 -18
v 2 22 -18
v 2 23 -18
v 3 20 -18
v 3 21 -18
v 3 22 -18
v 4 19 -18
v 4 20 -18
v 4 21 -18
v 5 18 -18
v 5 19 -18
v 5 20 -18
v 6 17 -18
v 6 18 -18
v 6 19 -18
v 7 16 -18
v 7 17 -18
v 7 18 -18
v 8 15 -18
v 8 16 -18
v 8 17 -18
v 9 15 -18
v 9 16 -18
v 17 0 -18
v 17 1 -18
v 17 2 -18
v 17 38 -18
v 17 39 -18
v 17 40 -18
v 18 1 -18
v 18 2 -18
v 18 3 -18
v 18 37 -18
v 18 38 -18
v 18 39 -18
v 19 2 -18
v 19 3 -18
v 19 37 -18
v 19 38 -18
v 20 3 -18
v 20 37 -18
v -17 0 20
v 17 0 20
v -16 0 19
v 16 0 19
v -16 0 -17
v 16 0 -17
v -17 0 -18
v 17 0 -18
v -18 1 20
v -17 1 20
v 17 1 20
v 18 1 20
v -18 1 19
v -17 1 19
v 17 1 19
v 18 1 19
v -18 1 -17
v -17 1 -17
v 17 1 -17
v 18 1 -17
v -18 1 -18
v -17 1 -18
v 17 1 -18
v 18 1 -18
v -19 2 20
v -18 2 20
v 18 2 20
v 19 2 20
v -19 2 19
v -18 2 19
v 18 2 19
v 19 2 19
v -19 2 -17
v -18 2 -17
v 18 2 -17
v 19 2 -17
v -19 2 -18
v -18 2 -18
v 18 2 -18
v 19 2 -18
v -20 3 20
v -19 3 20
v 19 3 20
v 20 3 20
v -19 3 19
v 19 3 19
v -19 3 -17
v 19 3 -17
v -20 3 -18
v -19 3 -18
v 19 3 -18
v 20 3 -18
v -20 37 20
v -19 37 20
v 19 37 20
v 20 37 20
v -19 37 19
v 19 37 19
v -19 37 -17
v 19 37 -17
v -20 37 -18
v -19 37 -18
v 19 37 -18
v 20 37 -18
v -19 38 20
v -18 38 20
v 18 38 20
v 19 38 20
v -19 38 19
v -18 38 19
v 18 38 19
v 19 38 19
v -19 38 -17
v -18 38 -17
v 18 38 -17
v 19 38 -17
v -19 38 -18
v -18 38 -18
v 18 38 -18
v 19 38 -18
v -18 39 20
v -17 39 20
v 17 39 20
v 18 39 20
v -18 39 19
v -17 39 19
v 17 39 19
v 18 39 19
v -18 39 -17
v -17 39 -17
v 17 39 -17
v 18 39 -17
v -18 39 -18
v -17 39 -18
v 17 39 -18
v 18 39 -18
v -17 40 20
v 17 40 20
v -16 40 19
v 16 40 19
v -16 40 -17
v 16 40 -17
v -17 40 -18
v 17 40 -18

# faces
f 3/1/1 2/1/1 1/1/1
f 4/1/1 2/1/1 3/1/1
f 5/1/1 3/1/1 1/1/1
f 5/2/1 4/2/1 3/2/1
f 6/1/1 2/1/1 4/1/1
f 6/2/1 4/2/1 5/2/1
f 7/1/1 5/1/1 1/1/1
f 7/1/1 6/1/1 5/1/1
f 8/1/1 2/1/1 6/1/1
f 8/1/1 6/1/1 7/1/1
f 13/1/1 10/1/1 9/1/1
f 14/2/1 11/2/1 10/2/1
f 14/1/1 10/1/1 13/1/1
f 15/1/1 12/1/1 11/1/1
f 15/2/1 11/2/1 14/2/1
f 16/1/1 12/1/1 15/1/1
f 21/1/1 18/1/1 17/1/1
f 22/2/1 19/2/1 18/2/1
f 22/1/1 18/1/1 21/1/1
f 23/1/1 20/1/1 19/1/1
f 23/2/1 19/2/1 22/2/1
f 24/1/1 20/1/1 23/1/1
f 29/1/1 26/1/1 25/1/1
f 30/2/1 27/2/1 26/2/1
f 30/1/1 26/1/1 29/1/1
f 31/1/1 28/1/1 27/1/1
f 31/2/1 27/2/1 30/2/1
f 32/1/1 28/1/1 31/1/1
f 37/1/1 34/1/1 33/1/1
f 38/2/1 35/2/1 34/2/1
f 38/1/1 34/1/1 37/1/1
f 39/1/1 36/1/1 35/1/1
f 39/2/1 35/2/1 38/2/1
f 40/1/1 36/1/1 39/1/1
f 43/1/1 42/1/1 41/1/1
f 44/1/1 42/1/1 43/1/1
f 45/1/1 42/1/1 44/1/1
f 46/1/1 42/1/1 45/1/1
f 51/1/1 48/1/1 47/1/1
f 51/1/1 50/1/1 49/1/1
f 51/1/1 49/1/1 48/1/1
f 52/1/1 50/1/1 51/1/1
f 53/1/2 54/1/2 55/1/2
f 55/1/2 54/1/2 56/1/2
f 56/1/2 54/1/2 57/1/2
f 57/1/2 54/1/2 58/1/2
f 59/1/2 60/1/2 63/1/2
f 61/1/2 62/1/2 63/1/2
f 60/1/2 61/1/2 63/1/2
f 63/1/2 62/1/2 64/1/2
f 65/1/2 66/1/2 69/1/2
f 66/2/2 67/2/2 70/2/2
f 69/1/2 66/1/2 70/1/2
f 67/1/2 68/1/2 71/1/2
f 70/2/2 67/2/2 71/2/2
f 71/1/2 68/1/2 72/1/2
f 73/1/2 74/1/2 77/1/2
f 74/2/2 75/2/2 78/2/2
f 77/1/2 74/1/2 78/1/2
f 75/1/2 76/1/2 79/1/2
f 78/2/2 75/2/2 79/2/2
f 79/1/2 76/1/2 80/1/2
f 81/1/2 82/1/2 85/1/2
f 82/2/2 83/2/2 86/2/2
f 85/1/2 82/1/2 86/1/2
f 83/1/2 84/1/2 87/1/2
f 86/2/2 83/2/2 87/2/2
f 87/1/2 84/1/2 88/1/2
f 89/1/2 90/1/2 93/1/2
f 90/2/2 91/2/2 94/2/2
f 93/1/2 90/1/2 94/1/2
f 91/1/2 92/1/2 95/1/2
f 94/2/2 91/2/2 95/2/2
f 95/1/2 92/1/2 96/1/2
f 97/1/2 98/1/2 99/1/2
f 99/1/2 98/1/2 100/1/2
f 97/1/2 99/1/2 101/1/2
f 99/2/2 100/2/2 101/2/2
f 100/1/2 98/1/2 102/1/2
f 101/2/2 100/2/2 102/2/2
f 97/1/2 101/1/2 103/1/2
f 101/1/2 102/1/2 103/1/2
f 102/1/2 98/1/2 104/1/2
f 103/1/2 102/1/2 104/1/2
f 108/1/3 106/1/3 105/1/3
f 109/1/3 106/1/3 108/1/3
f 112/1/3 108/1/3 107/1/3
f 113/2/3 109/2/3 108/2/3
f 113/1/3 108/1/3 112/1/3
f 114/1/3 110/1/3 109/1/3
f 114/2/3 109/2/3 113/2/3
f 115/1/3 110/1/3 114/1/3
f 118/1/3 112/1/3 111/1/3
f 119/2/3 113/2/3 112/2/3
f 119/2/3 114/2/3 113/2/3
f 119/1/3 112/1/3 118/1/3
f 119/2/3 115/2/3 114/2/3
f 120/1/3 116/1/3 115/1/3
f 120/2/3 115/2/3 119/2/3
f 121/1/3 116/1/3 120/1/3
f 123/2/3 119/2/3 118/2/3
f 123/2/3 120/2/3 119/2/3
f 123/2/3 121/2/3 120/2/3
f 124/2/3 121/2/3 123/2/3
f 125/2/3 123/2/3 118/2/3
f 125/1/3 124/1/3 123/1/3
f 126/2/3 121/2/3 124/2/3
f 126/1/3 124/1/3 125/1/3
f 127/2/3 121/2/3 126/2/3
f 128/2/3 126/2/3 125/2/3
f 128/1/3 127/1/3 126/1/3
f 129/2/3 121/2/3 127/2/3
f 129/1/3 127/1/3 128/1/3
f 130/2/3 121/2/3 129/2/3
f 131/2/3 129/2/3 128/2/3
f 131/1/3 130/1/3 129/1/3
f 132/2/3 121/2/3 130/2/3
f 132/1/3 130/1/3 131/1/3
f 133/2/3 121/2/3 132/2/3
f 134/2/3 132/2/3 131/2/3
f 134/1/3 133/1/3 132/1/3
f 135/2/3 121/2/3 133/2/3
f 135/1/3 133/1/3 134/1/3
f 136/2/3 121/2/3 135/2/3
f 137/2/3 135/2/3 134/2/3
f 137/1/3 136/1/3 135/1/3
f 138/2/3 121/2/3 136/2/3
f 138/1/3 136/1/3 137/1/3
f 139/2/3 121/2/3 138/2/3
f 140/2/3 138/2/3 137/2/3
f 140/1/3 139/1/3 138/1/3
f 141/2/3 121/2/3 139/2/3
f 141/1/3 139/1/3 140/1/3
f 142/2/3 121/2/3 141/2/3
f 143/2/3 141/2/3 140/2/3
f 143/1/3 142/1/3 141/1/3
f 144/2/3 121/2/3 142/2/3
f 144/1/3 142/1/3 143/1/3
f 145/2/3 121/2/3 144/2/3
f 146/2/3 144/2/3 143/2/3
f 146/1/3 145/1/3 144/1/3
f 147/2/3 121/2/3 145/2/3
f 147/1/3 145/1/3 146/1/3
f 148/2/3 121/2/3 147/2/3
f 149/2/3 134/2/3 131/2/3
f 149/2/3 137/2/3 134/2/3
f 149/2/3 140/2/3 137/2/3
f 149/2/3 147/2/3 146/2/3
f 149/2/3 146/2/3 143/2/3
f 149/2/3 143/2/3 140/2/3
f 150/2/3 147/2/3 149/2/3
f 151/1/3 148/1/3 147/1/3
f 151/2/3 147/2/3 150/2/3
f 152/2/3 121/2/3 148/2/3
f 152/1/3 148/1/3 151/1/3
f 153/2/3 121/2/3 152/2/3
f 154/1/3 150/1/3 149/1/3
f 154/2/3 149/2/3 131/2/3
f 155/2/3 151/2/3 150/2/3
f 155/1/3 150/1/3 154/1/3
f 155/2/3 152/2/3 151/2/3
f 156/2/3 152/2/3 155/2/3
f 157/1/3 153/1/3 152/1/3
f 157/2/3 152/2/3 156/2/3
f 158/2/3 121/2/3 153/2/3
f 158/1/3 153/1/3 157/1/3
f 159/2/3 121/2/3 158/2/3
f 160/1/3 156/1/3 155/1/3
f 160/2/3 155/2/3 154/2/3
f 161/2/3 157/2/3 156/2/3
f 161/1/3 156/1/3 160/1/3
f 161/2/3 158/2/3 157/2/3
f 162/2/3 158/2/3 161/2/3
f 163/1/3 159/1/3 158/1/3
f 163/2/3 158/2/3 162/2/3
f 164/2/3 121/2/3 159/2/3
f 164/1/3 159/1/3 163/1/3
f 165/2/3 121/2/3 164/2/3
f 166/1/3 162/1/3 161/1/3
f 166/2/3 161/2/3 160/2/3
f 167/2/3 163/2/3 162/2/3
f 167/1/3 162/1/3 166/1/3
f 167/2/3 164/2/3 163/2/3
f 168/2/3 164/2/3 167/2/3
f 169/1/3 165/1/3 164/1/3
f 169/2/3 164/2/3 168/2/3
f 170/2/3 121/2/3 165/2/3
f 170/1/3 165/1/3 169/1/3
f 171/2/3 121/2/3 170/2/3
f 172/1/3 168/1/3 167/1/3
f 172/2/3 167/2/3 166/2/3
f 173/2/3 169/2/3 168/2/3
f 173/1/3 168/1/3 172/1/3
f 173/2/3 170/2/3 169/2/3
f 174/1/3 171/1/3 170/1/3
f 174/2/3 170/2/3 173/2/3
f 175/2/3 121/2/3 171/2/3
f 175/1/3 171/1/3 174/1/3
f 176/2/3 121/2/3 175/2/3
f 177/2/3 174/2/3 173/2/3
f 177/2/3 173/2/3 172/2/3
f 177/1/3 176/1/3 175/1/3
f 177/2/3 175/2/3 174/2/3
f 178/2/3 121/2/3 176/2/3
f 178/1/3 176/1/3 177/1/3
f 179/2/3 121/2/3 178/2/3
f 180/2/3 178/2/3 177/2/3
f 180/1/3 179/1/3 178/1/3
f 181/2/3 121/2/3 179/2/3
f 181/1/3 179/1/3 180/1/3
f 182/2/3 121/2/3 181/2/3
f 183/2/3 181/2/3 180/2/3
f 183/1/3 182/1/3 181/1/3
f 184/2/3 121/2/3 182/2/3
f 184/1/3 182/1/3 183/1/3
f 185/2/3 121/2/3 184/2/3
f 186/2/3 184/2/3 183/2/3
f 186/1/3 185/1/3 184/1/3
f 187/2/3 121/2/3 185/2/3
f 187/1/3 185/1/3 186/1/3
f 188/1/3 118/1/3 117/1/3
f 189/2/3 125/2/3 118/2/3
f 189/1/3 118/1/3 188/1/3
f 189/2/3 128/2/3 125/2/3
f 189/2/3 187/2/3 186/2/3
f 189/2/3 186/2/3 183/2/3
f 189/2/3 183/2/3 180/2/3
f 189/2/3 180/2/3 177/2/3
f 189/2/3 177/2/3 172/2/3
f 189/2/3 172/2/3 166/2/3
f 189/2/3 166/2/3 160/2/3
f 189/2/3 160/2/3 154/2/3
f 189/2/3 154/2/3 131/2/3
f 189/2/3 131/2/3 128/2/3
f 190/2/3 187/2/3 189/2/3
f 191/2/3 121/2/3 187/2/3
f 191/2/3 187/2/3 190/2/3
f 192/1/3 122/1/3 121/1/3
f 192/2/3 121/2/3 191/2/3
f 193/1/3 122/1/3 192/1/3
f 194/1/3 190/1/3 189/1/3
f 195/2/3 191/2/3 190/2/3
f 195/1/3 190/1/3 194/1/3
f 196/2/3 191/2/3 195/2/3
f 197/2/3 191/2/3 196/2/3
f 198/1/3 192/1/3 191/1/3
f 198/2/3 191/2/3 197/2/3
f 199/1/3 192/1/3 198/1/3
f 200/1/3 196/1/3 195/1/3
f 201/2/3 197/2/3 196/2/3
f 201/1/3 196/1/3 200/1/3
f 202/1/3 198/1/3 197/1/3
f 202/2/3 197/2/3 201/2/3
f 203/1/3 198/1/3 202/1/3
f 204/1/3 202/1/3 201/1/3
f 205/1/3 202/1/3 204/1/3
f 206/1/4 207/1/4 209/1/4
f 209/1/4 207/1/4 210/1/4
f 208/1/4 209/1/4 213/1/4
f 209/2/4 210/2/4 214/2/4
f 213/1/4 209/1/4 214/1/4
f 210/1/4 211/1/4 215/1/4
f 214/2/4 210/2/4 215/2/4
f 215/1/4 211/1/4 216/1/4
f 212/1/4 213/1/4 219/1/4
f 213/2/4 214/2/4 220/2/4
f 214/2/4 215/2/4 220/2/4
f 219/1/4 213/1/4 220/1/4
f 215/2/4 216/2/4 220/2/4
f 216/1/4 217/1/4 221/1/4
f 220/2/4 216/2/4 221/2/4
f 221/1/4 217/1/4 222/1/4
f 219/2/4 220/2/4 224/2/4
f 220/2/4 221/2/4 224/2/4
f 221/2/4 222/2/4 224/2/4
f 224/2/4 222/2/4 225/2/4
f 225/2/4 222/2/4 226/2/4
f 226/2/4 222/2/4 227/2/4
f 219/2/4 224/2/4 228/2/4
f 224/1/4 225/1/4 229/1/4
f 228/2/4 224/2/4 229/2/4
f 225/2/4 226/2/4 230/2/4
f 229/1/4 225/1/4 230/1/4
f 230/2/4 226/2/4 231/2/4
f 226/1/4 227/1/4 232/1/4
f 231/2/4 226/2/4 232/2/4
f 227/2/4 222/2/4 233/2/4
f 232/1/4 227/1/4 233/1/4
f 219/2/4 228/2/4 234/2/4
f 228/1/4 229/1/4 235/1/4
f 234/2/4 228/2/4 235/2/4
f 230/2/4 231/2/4 236/2/4
f 235/1/4 229/1/4 236/1/4
f 229/2/4 230/2/4 236/2/4
f 236/2/4 231/2/4 237/2/4
f 231/1/4 232/1/4 238/1/4
f 237/2/4 231/2/4 238/2/4
f 232/2/4 233/2/4 239/2/4
f 238/1/4 232/1/4 239/1/4
f 219/2/4 234/2/4 240/2/4
f 234/1/4 235/1/4 241/1/4
f 240/2/4 234/2/4 241/2/4
f 236/2/4 237/2/4 242/2/4
f 241/1/4 235/1/4 242/1/4
f 235/2/4 236/2/4 242/2/4
f 242/2/4 237/2/4 243/2/4
f 237/1/4 238/1/4 244/1/4
f 243/2/4 237/2/4 244/2/4
f 238/2/4 239/2/4 245/2/4
f 244/1/4 238/1/4 245/1/4
f 219/2/4 240/2/4 246/2/4
f 240/1/4 241/1/4 247/1/4
f 246/2/4 240/2/4 247/2/4
f 242/2/4 243/2/4 248/2/4
f 247/1/4 241/1/4 248/1/4
f 241/2/4 242/2/4 248/2/4
f 248/2/4 243/2/4 249/2/4
f 243/1/4 244/1/4 250/1/4
f 249/2/4 243/2/4 250/2/4
f 244/2/4 245/2/4 251/2/4
f 250/1/4 244/1/4 251/1/4
f 219/2/4 246/2/4 252/2/4
f 246/1/4 247/1/4 253/1/4
f 252/2/4 246/2/4 253/2/4
f 248/2/4 249/2/4 254/2/4
f 253/1/4 247/1/4 254/1/4
f 247/2/4 248/2/4 254/2/4
f 254/2/4 249/2/4 255/2/4
f 249/1/4 250/1/4 256/1/4
f 255/2/4 249/2/4 256/2/4
f 250/2/4 251/2/4 257/2/4
f 256/1/4 250/1/4 257/1/4
f 219/2/4 252/2/4 258/2/4
f 252/1/4 253/1/4 258/1/4
f 254/2/4 255/2/4 259/2/4
f 258/1/4 253/1/4 259/1/4
f 253/2/4 254/2/4 259/2/4
f 259/2/4 255/2/4 260/2/4
f 255/1/4 256/1/4 261/1/4
f 260/2/4 255/2/4 261/2/4
f 256/2/4 257/2/4 262/2/4
f 261/1/4 256/1/4 262/1/4
f 259/2/4 260/2/4 263/2/4
f 258/2/4 259/2/4 263/2/4
f 260/1/4 261/1/4 264/1/4
f 263/2/4 260/2/4 264/2/4
f 261/2/4 262/2/4 265/2/4
f 264/1/4 261/1/4 265/1/4
f 258/2/4 263/2/4 266/2/4
f 263/1/4 264/1/4 267/1/4
f 266/2/4 263/2/4 267/2/4
f 264/2/4 265/2/4 268/2/4
f 267/1/4 264/1/4 268/1/4
f 258/2/4 266/2/4 269/2/4
f 266/1/4 267/1/4 270/1/4
f 269/2/4 266/2/4 270/2/4
f 267/2/4 268/2/4 271/2/4
f 270/1/4 267/1/4 271/1/4
f 258/2/4 269/2/4 272/2/4
f 269/1/4 270/1/4 273/1/4
f 272/2/4 269/2/4 273/2/4
f 270/2/4 271/2/4 274/2/4
f 273/1/4 270/1/4 274/1/4
f 258/2/4 272/2/4 275/2/4
f 272/1/4 273/1/4 276/1/4
f 275/2/4 272/2/4 276/2/4
f 273/2/4 274/2/4 277/2/4
f 276/1/4 273/1/4 277/1/4
f 258/2/4 275/2/4 278/2/4
f 275/1/4 276/1/4 279/1/4
f 278/2/4 275/2/4 279/2/4
f 276/2/4 277/2/4 280/2/4
f 279/1/4 276/1/4 280/1/4
f 258/2/4 278/2/4 281/2/4
f 278/1/4 279/1/4 281/1/4
f 279/2/4 280/2/4 282/2/4
f 281/1/4 279/1/4 282/1/4
f 218/1/4 219/1/4 283/1/4
f 219/2/4 258/2/4 284/2/4
f 283/1/4 219/1/4 284/1/4
f 258/2/4 281/2/4 284/2/4
f 281/2/4 282/2/4 284/2/4
f 284/2/4 282/2/4 285/2/4
f 282/2/4 280/2/4 286/2/4
f 285/2/4 282/2/4 286/2/4
f 251/2/4 245/2/4 286/2/4
f 233/2/4 222/2/4 286/2/4
f 280/2/4 277/2/4 286/2/4
f 277/2/4 274/2/4 286/2/4
f 274/2/4 271/2/4 286/2/4
f 271/2/4 268/2/4 286/2/4
f 268/2/4 265/2/4 286/2/4
f 262/2/4 257/2/4 286/2/4
f 239/2/4 233/2/4 286/2/4
f 265/2/4 262/2/4 286/2/4
f 257/2/4 251/2/4 286/2/4
f 245/2/4 239/2/4 286/2/4
f 222/1/4 223/1/4 287/1/4
f 286/2/4 222/2/4 287/2/4
f 287/1/4 223/1/4 288/1/4
f 284/1/4 285/1/4 289/1/4
f 285/2/4 286/2/4 290/2/4
f 289/1/4 285/1/4 290/1/4
f 290/2/4 286/2/4 291/2/4
f 291/2/4 286/2/4 292/2/4
f 286/1/4 287/1/4 293/1/4
f 292/2/4 286/2/4 293/2/4
f 293/1/4 287/1/4 294/1/4
f 290/1/4 291/1/4 295/1/4
f 291/2/4 292/2/4 296/2/4
f 295/1/4 291/1/4 296/1/4
f 292/1/4 293/1/4 297/1/4
f 296/2/4 292/2/4 297/2/4
f 297/1/4 293/1/4 298/1/4
f 296/1/4 297/1/4 299/1/4
f 299/1/4 297/1/4 300/1/4
f 303/1/5 302/1/5 301/1/5
f 304/1/5 302/1/5 303/1/5
f 305/1/5 303/1/5 301/1/5
f 305/2/5 304/2/5 303/2/5
f 306/1/5 302/1/5 304/1/5
f 306/2/5 304/2/5 305/2/5
f 307/1/5 305/1/5 301/1/5
f 307/1/5 306/1/5 305/1/5
f 308/1/5 302/1/5 306/1/5
f 308/1/5 306/1/5 307/1/5
f 313/1/5 310/1/5 309/1/5
f 314/1/5 310/1/5 313/1/5
f 315/1/5 312/1/5 311/1/5
f 316/1/5 312/1/5 315/1/5
f 317/2/5 314/2/5 313/2/5
f 318/2/5 314/2/5 317/2/5
f 319/2/5 316/2/5 315/2/5
f 320/2/5 316/2/5 319/2/5
f 321/1/5 318/1/5 317/1/5
f 322/1/5 318/1/5 321/1/5
f 323/1/5 320/1/5 319/1/5
f 324/1/5 320/1/5 323/1/5
f 329/1/5 326/1/5 325/1/5
f 330/1/5 326/1/5 329/1/5
f 331/1/5 328/1/5 327/1/5
f 332/1/5 328/1/5 331/1/5
f 333/2/5 330/2/5 329/2/5
f 334/2/5 330/2/5 333/2/5
f 335/2/5 332/2/5 331/2/5
f 336/2/5 332/2/5 335/2/5
f 337/1/5 334/1/5 333/1/5
f 338/1/5 334/1/5 337/1/5
f 339/1/5 336/1/5 335/1/5
f 340/1/5 336/1/5 339/1/5
f 345/1/5 342/1/5 341/1/5
f 346/1/5 344/1/5 343/1/5
f 347/1/5 345/1/5 341/1/5
f 348/1/5 344/1/5 346/1/5
f 349/1/5 347/1/5 341/1/5
f 350/1/5 347/1/5 349/1/5
f 351/1/5 344/1/5 348/1/5
f 352/1/5 344/1/5 351/1/5
f 353/1/6 354/1/6 357/1/6
f 355/1/6 356/1/6 358/1/6
f 353/1/6 357/1/6 359/1/6
f 358/1/6 356/1/6 360/1/6
f 353/1/6 359/1/6 361/1/6
f 361/1/6 359/1/6 362/1/6
f 360/1/6 356/1/6 363/1/6
f 363/1/6 356/1/6 364/1/6
f 365/1/6 366/1/6 369/1/6
f 369/1/6 366/1/6 370/1/6
f 367/1/6 368/1/6 371/1/6
f 371/1/6 368/1/6 372/1/6
f 369/2/6 370/2/6 373/2/6
f 373/2/6 370/2/6 374/2/6
f 371/2/6 372/2/6 375/2/6
f 375/2/6 372/2/6 376/2/6
f 373/1/6 374/1/6 377/1/6
f 377/1/6 374/1/6 378/1/6
f 375/1/6 376/1/6 379/1/6
f 379/1/6 376/1/6 380/1/6
f 381/1/6 382/1/6 385/1/6
f 385/1/6 382/1/6 386/1/6
f 383/1/6 384/1/6 387/1/6
f 387/1/6 384/1/6 388/1/6
f 385/2/6 386/2/6 389/2/6
f 389/2/6 386/2/6 390/2/6
f 387/2/6 388/2/6 391/2/6
f 391/2/6 388/2/6 392/2/6
f 389/1/6 390/1/6 393/1/6
f 393/1/6 390/1/6 394/1/6
f 391/1/6 392/1/6 395/1/6
f 395/1/6 392/1/6 396/1/6
f 397/1/6 398/1/6 399/1/6
f 399/1/6 398/1/6 400/1/6
f 397/1/6 399/1/6 401/1/6
f 399/2/6 400/2/6 401/2/6
f 400/1/6 398/1/6 402/1/6
f 401/2/6 400/2/6 402/2/6
f 397/1/6 401/1/6 403/1/6
f 401/1/6 402/1/6 403/1/6
f 402/1/6 398/1/6 404/1/6
f 403/1/6 402/1/6 404/1/6
